<svg viewBox="0 0 300 200" xmlns="http://www.w3.org/2000/svg" style="width:100%;background:#cdd94a;border-radius:12px">
  <defs>
    <clipPath id="b1">
      <path d="M 90,72 C 90,72 72,85 72,97 C 72,108 80,116 90,116 C 100,116 108,108 108,97 C 108,85 90,72 90,72 Z"/>
    </clipPath>
    <clipPath id="b2">
      <path d="M 210,72 C 210,72 192,85 192,97 C 192,108 200,116 210,116 C 220,116 228,108 228,97 C 228,85 210,72 210,72 Z"/>
    </clipPath>
  </defs>

  <!-- JOUEUR -->
  <text x="90" y="60" text-anchor="middle" font-size="9" fill="#3a5010" font-family="sans-serif" font-weight="bold" style="fill:rgb(58, 80, 16);stroke:none;color:rgb(0, 0, 0);stroke-width:1px;stroke-linecap:butt;stroke-linejoin:miter;opacity:1;font-family:sans-serif;font-size:9px;font-weight:700;text-anchor:middle;dominant-baseline:auto">JOUEUR</text>
  <ellipse cx="94" cy="119" rx="13" ry="4" fill="#000" opacity="0.15" style="fill:rgb(0, 0, 0);stroke:none;color:rgb(0, 0, 0);stroke-width:1px;stroke-linecap:butt;stroke-linejoin:miter;opacity:0.15;font-family:&quot;Anthropic Sans&quot;, -apple-system, &quot;system-ui&quot;, &quot;Segoe UI&quot;, sans-serif;font-size:16px;font-weight:400;text-anchor:start;dominant-baseline:auto"/>
  <!-- Corps goutte écrasé verticalement -->
  <path d="M 90,72 C 90,72 72,85 72,97 C 72,108 80,116 90,116 C 100,116 108,108 108,97 C 108,85 90,72 90,72 Z" fill="#7a3a08" style="fill:rgb(122, 58, 8);stroke:none;color:rgb(0, 0, 0);stroke-width:1px;stroke-linecap:butt;stroke-linejoin:miter;opacity:1;font-family:&quot;Anthropic Sans&quot;, -apple-system, &quot;system-ui&quot;, &quot;Segoe UI&quot;, sans-serif;font-size:16px;font-weight:400;text-anchor:start;dominant-baseline:auto"/>
  <rect x="68" y="91" width="44" height="16" fill="#f0c020" clip-path="url(#b1)" style="fill:rgb(240, 192, 32);stroke:none;color:rgb(0, 0, 0);stroke-width:1px;stroke-linecap:butt;stroke-linejoin:miter;opacity:1;font-family:&quot;Anthropic Sans&quot;, -apple-system, &quot;system-ui&quot;, &quot;Segoe UI&quot;, sans-serif;font-size:16px;font-weight:400;text-anchor:start;dominant-baseline:auto"/>

  <!-- ENNEMI -->
  <text x="210" y="60" text-anchor="middle" font-size="9" fill="#3a5010" font-family="sans-serif" font-weight="bold" style="fill:rgb(58, 80, 16);stroke:none;color:rgb(0, 0, 0);stroke-width:1px;stroke-linecap:butt;stroke-linejoin:miter;opacity:1;font-family:sans-serif;font-size:9px;font-weight:700;text-anchor:middle;dominant-baseline:auto">ENNEMI</text>
  <ellipse cx="214" cy="119" rx="13" ry="4" fill="#000" opacity="0.15" style="fill:rgb(0, 0, 0);stroke:none;color:rgb(0, 0, 0);stroke-width:1px;stroke-linecap:butt;stroke-linejoin:miter;opacity:0.15;font-family:&quot;Anthropic Sans&quot;, -apple-system, &quot;system-ui&quot;, &quot;Segoe UI&quot;, sans-serif;font-size:16px;font-weight:400;text-anchor:start;dominant-baseline:auto"/>
  <path d="M 210,72 C 210,72 192,85 192,97 C 192,108 200,116 210,116 C 220,116 228,108 228,97 C 228,85 210,72 210,72 Z" fill="#5a1a08" style="fill:rgb(90, 26, 8);stroke:none;color:rgb(0, 0, 0);stroke-width:1px;stroke-linecap:butt;stroke-linejoin:miter;opacity:1;font-family:&quot;Anthropic Sans&quot;, -apple-system, &quot;system-ui&quot;, &quot;Segoe UI&quot;, sans-serif;font-size:16px;font-weight:400;text-anchor:start;dominant-baseline:auto"/>
  <rect x="188" y="91" width="44" height="16" fill="#cc2020" clip-path="url(#b2)" style="fill:rgb(204, 32, 32);stroke:none;color:rgb(0, 0, 0);stroke-width:1px;stroke-linecap:butt;stroke-linejoin:miter;opacity:1;font-family:&quot;Anthropic Sans&quot;, -apple-system, &quot;system-ui&quot;, &quot;Segoe UI&quot;, sans-serif;font-size:16px;font-weight:400;text-anchor:start;dominant-baseline:auto"/>
</svg>